<svg width="360" height="84" viewBox="0 0 360 84" fill="none" xmlns="http://www.w3.org/2000/svg">
<path d="M322.705 4.23507C324.234 5.57974 325.273 7.09133 325.502 9.11801C325.531 9.87991 325.534 10.6382 325.528 11.4006C325.529 11.6887 325.53 11.9768 325.531 12.2736C325.533 12.8964 325.533 13.5193 325.531 14.1422C325.528 15.1305 325.531 16.1187 325.535 17.1071C325.545 19.5623 325.547 22.0176 325.546 24.4728C325.546 26.548 325.55 28.623 325.559 30.6981C325.562 31.6672 325.559 32.6361 325.556 33.6052C325.562 37.6294 325.7 41.0678 328.422 44.3268C328.617 44.5696 328.617 44.5696 328.816 44.8172C330.931 47.1495 334.046 48.1691 337.133 48.547C338.326 48.6083 339.516 48.6205 340.711 48.6194C341.293 48.6191 341.876 48.6226 342.459 48.627C344.114 48.6391 345.769 48.6457 347.424 48.6474C348.442 48.6488 349.461 48.6552 350.479 48.6647C350.864 48.6672 351.249 48.6679 351.634 48.6665C354.141 48.6577 355.883 48.7699 357.879 50.3377C359.397 52.0203 360.122 53.708 359.983 55.9653C359.678 57.952 358.874 59.3038 357.298 60.5945C355.753 61.5504 354.432 61.8526 352.611 61.8416C352.398 61.8434 352.184 61.8452 351.965 61.8471C351.264 61.8519 350.563 61.8509 349.862 61.8494C349.369 61.8506 348.876 61.852 348.384 61.8536C347.351 61.856 346.318 61.8553 345.285 61.8527C343.974 61.8497 342.663 61.855 341.352 61.8627C340.334 61.8676 339.315 61.8675 338.296 61.866C337.813 61.8659 337.331 61.8675 336.849 61.8708C332.807 61.8946 328.852 61.4906 325.189 59.6909C324.904 59.5555 324.904 59.5555 324.612 59.4174C322.936 58.5985 321.436 57.6125 319.983 56.4598C319.691 56.2369 319.691 56.2369 319.394 56.0096C314.728 52.2828 311.9 46.3908 311.272 40.6341C311.123 38.2009 311.156 35.7604 311.163 33.324C311.163 32.6202 311.162 31.9164 311.161 31.2126C311.159 29.7452 311.161 28.2779 311.165 26.8106C311.17 25.1201 311.168 23.4298 311.164 21.7394C311.16 20.2786 311.159 18.8178 311.161 17.357C311.163 16.4885 311.163 15.62 311.16 14.7516C311.158 13.7847 311.161 12.8181 311.166 11.8512C311.164 11.568 311.163 11.2847 311.161 10.9929C311.183 8.48394 311.658 6.54245 313.459 4.69047C316.007 2.52134 319.941 2.27058 322.705 4.23507Z" fill="white"/>
<path d="M207.851 0.000277356C208.048 0.000508453 208.246 0.00073955 208.45 0.00097765C216.783 0.0330427 223.448 2.72173 229.493 8.34173C234.855 13.7222 238.149 20.8257 238.595 28.3217C238.616 28.6093 238.637 28.8969 238.658 29.1933C238.745 31.3049 238.572 32.9308 237.234 34.6519C235.384 36.4534 233.179 36.5584 230.679 36.5718C230.312 36.5712 229.946 36.5705 229.58 36.5698C229.19 36.571 228.801 36.5724 228.411 36.574C227.575 36.577 226.739 36.5784 225.903 36.5787C224.58 36.5792 223.258 36.584 221.935 36.5894C218.652 36.6024 215.368 36.6106 212.085 36.6162C209.53 36.6205 206.976 36.6265 204.421 36.6381C203.107 36.6438 201.793 36.6459 200.478 36.6453C199.661 36.6458 198.843 36.6495 198.026 36.6541C197.647 36.6556 197.269 36.6557 196.89 36.6544C196.372 36.6528 195.855 36.6565 195.338 36.6604C194.904 36.6612 194.904 36.6612 194.461 36.662C193.339 36.8053 192.627 37.2629 191.823 38.0149C191.33 38.9203 191.347 39.4352 191.5 40.4547C193.332 44.4541 196.855 47.0702 200.977 48.6138C206.618 50.4424 213.156 50.3883 218.553 47.873C219.554 47.3549 220.517 46.7914 221.479 46.208C223.491 45.0161 225.668 44.3074 228.028 44.7985C229.799 45.2844 231.16 46.0736 232.149 47.6051C232.908 49.0964 233.246 50.4382 232.699 52.0684C230.955 55.8715 226.081 58.2873 222.266 59.7742C215.264 62.3101 207.208 62.6543 199.939 61.0281C199.743 60.9842 199.546 60.9403 199.344 60.8952C196.337 60.1929 193.65 59.0575 190.956 57.5992C190.687 57.4557 190.419 57.3122 190.142 57.1644C183.547 53.3726 178.91 46.6936 176.956 39.5996C174.786 31.1765 175.792 21.9166 180.356 14.3928C184.395 8.0689 190.575 3.35938 197.914 1.22017C198.184 1.14151 198.184 1.14151 198.459 1.06125C201.561 0.207493 204.639 -0.00891204 207.851 0.000277356ZM194.001 17.2107C191.966 19.527 189.867 22.7812 189.867 25.9478C201.455 25.9478 213.044 25.9478 224.984 25.9478C224.42 21.5794 222.471 17.9803 218.995 15.1336C211.456 9.75731 200.451 10.5544 194.001 17.2107Z" fill="white"/>
<path d="M279.163 1.59928C279.667 1.59112 279.667 1.59112 280.181 1.58279C286.43 1.55745 291.753 3.65794 296.262 7.83064C297.595 9.1768 298.629 10.5882 299.563 12.2157C299.688 12.4295 299.813 12.6434 299.942 12.8637C302.049 16.6808 302.64 20.7935 302.636 25.0661C302.638 25.413 302.64 25.76 302.642 26.1174C302.647 27.059 302.648 28.0006 302.648 28.9423C302.649 29.5321 302.65 30.1218 302.651 30.7116C302.656 32.7731 302.659 34.8346 302.658 36.8962C302.658 38.8122 302.664 40.7282 302.672 42.6442C302.679 44.2956 302.682 45.947 302.682 47.5984C302.682 48.5821 302.683 49.5656 302.689 50.5492C302.695 51.6451 302.693 52.7408 302.69 53.8367C302.693 54.1595 302.696 54.4824 302.699 54.815C302.683 56.9322 302.414 58.3832 300.933 60.0204C300.756 60.1625 300.579 60.3046 300.396 60.451C300.22 60.5972 300.043 60.7434 299.862 60.8941C298.166 62.0259 296.385 62.0185 294.39 61.8028C292.527 61.2504 291.074 60.2434 290.035 58.6377C289.603 57.7237 289.422 57.0069 289.418 56.0035C289.416 55.7452 289.414 55.4868 289.411 55.2206C289.412 54.9402 289.412 54.6597 289.412 54.3707C289.41 54.0728 289.408 53.775 289.407 53.4682C289.403 52.8215 289.4 52.1749 289.399 51.5283C289.397 50.5023 289.391 49.4763 289.385 48.4503C289.371 46.2687 289.363 44.087 289.354 41.9053C289.345 39.3845 289.333 36.8637 289.317 34.3429C289.312 33.3369 289.31 32.3309 289.307 31.3249C289.323 23.5649 289.323 23.5649 285.477 16.9974C282.943 14.6289 279.469 13.8134 276.032 13.7323C272.22 13.8215 268.716 14.764 265.807 17.2271C265.645 17.3529 265.484 17.4787 265.317 17.6084C262.152 20.3087 261.213 24.6782 260.907 28.5689C260.872 29.5266 260.87 30.4831 260.872 31.4414C260.872 31.7154 260.871 31.9894 260.871 32.2717C260.87 32.862 260.869 33.4523 260.869 34.0427C260.868 35.301 260.862 36.5592 260.857 37.8175C260.846 40.1551 260.838 42.4927 260.838 44.8304C260.839 46.4616 260.832 48.0927 260.822 49.7238C260.819 50.343 260.818 50.9622 260.82 51.5813C260.823 52.4486 260.817 53.3154 260.81 54.1826C260.812 54.4353 260.815 54.6881 260.818 54.9485C260.787 56.9057 260.236 58.6182 258.89 60.1203C257.177 61.6088 255.517 61.96 253.283 61.8924C251.213 61.6649 249.898 60.7944 248.522 59.3197C247.048 56.8694 247.178 54.1753 247.19 51.4327C247.188 50.974 247.187 50.5153 247.185 50.0567C247.181 48.8174 247.183 47.5783 247.186 46.339C247.188 45.0385 247.186 43.7379 247.184 42.4374C247.183 40.2539 247.185 38.0705 247.189 35.887C247.193 33.3672 247.192 30.8474 247.187 28.3276C247.184 26.1592 247.183 23.9908 247.185 21.8224C247.186 20.5295 247.187 19.2366 247.184 17.9437C247.182 16.7278 247.183 15.512 247.188 14.2961C247.189 13.8515 247.189 13.4068 247.187 12.9622C247.165 7.05568 247.165 7.05568 249.201 4.83036C250.95 3.48682 252.672 2.808 254.918 2.98403C256.99 3.40132 258.553 4.22587 259.818 5.8854C260.56 7.20392 260.773 8.36983 260.907 9.84182C261.038 9.67284 261.17 9.50386 261.306 9.32976C264.669 5.12572 268.914 2.79613 274.271 1.76722C275.901 1.61087 277.526 1.60576 279.163 1.59928Z" fill="white"/>
<path d="M147.062 1.58279C153.311 1.55745 158.634 3.65794 163.143 7.83064C164.476 9.17679 165.51 10.5882 166.444 12.2157L166.823 12.8637C168.93 16.6807 169.521 20.7935 169.517 25.0661C169.519 25.4129 169.521 25.7598 169.523 26.1172C169.528 27.0588 169.529 28.0005 169.529 28.9421C169.53 29.5319 169.531 30.1217 169.532 30.7114C169.537 32.7729 169.54 34.8346 169.539 36.8962C169.539 38.8122 169.544 40.7281 169.553 42.6441C169.56 44.2955 169.563 45.9469 169.563 47.5983C169.563 48.582 169.564 49.5655 169.57 50.5492C169.576 51.645 169.574 52.7408 169.571 53.8367C169.574 54.1595 169.577 54.4823 169.58 54.8149C169.564 56.9321 169.295 58.3832 167.814 60.0204L167.277 60.451L166.743 60.8941C165.047 62.0259 163.265 62.0185 161.271 61.8028C159.408 61.2504 157.955 60.2434 156.916 58.6377C156.483 57.7237 156.303 57.0068 156.299 56.0034C156.297 55.7451 156.295 55.4868 156.292 55.2206C156.293 54.9401 156.293 54.6596 156.293 54.3706C156.291 54.0728 156.29 53.7749 156.288 53.4681C156.284 52.8214 156.282 52.1748 156.28 51.5282C156.278 50.5022 156.272 49.4761 156.266 48.4501C156.252 46.2685 156.244 44.0869 156.235 41.9053C156.226 39.3845 156.214 36.8636 156.198 34.3428C156.193 33.3368 156.191 32.3307 156.188 31.3247C156.204 23.5648 156.204 23.5648 152.358 16.9974C149.824 14.6289 146.35 13.8134 142.913 13.7323C139.101 13.8215 135.597 14.764 132.688 17.2271L132.198 17.6084C129.033 20.3087 128.094 24.6782 127.788 28.5689C127.753 29.5266 127.751 30.4832 127.753 31.4414C127.753 31.7154 127.752 31.9893 127.752 32.2716C127.751 32.8619 127.75 33.4524 127.75 34.0427C127.749 35.3009 127.743 36.5591 127.738 37.8173C127.727 40.1549 127.719 42.4927 127.719 44.8304C127.72 46.4616 127.713 48.0927 127.702 49.7239C127.7 50.343 127.699 50.9622 127.701 51.5813C127.704 52.4485 127.698 53.3154 127.69 54.1826C127.693 54.4353 127.696 54.688 127.699 54.9484C127.668 56.9056 127.117 58.6181 125.771 60.1203C124.402 61.3099 123.067 61.7724 121.445 61.876C120.602 61.9572 119.726 61.9025 118.804 61.8028C116.941 61.2504 115.488 60.2434 114.448 58.6377C114.016 57.7237 113.835 57.0068 113.832 56.0034C113.83 55.7451 113.827 55.4868 113.825 55.2206C113.825 54.9401 113.826 54.6596 113.826 54.3706C113.824 54.0728 113.822 53.7749 113.82 53.4681C113.817 52.8214 113.814 52.1748 113.813 51.5282C113.811 50.5022 113.805 49.4761 113.798 48.4501C113.785 46.2685 113.776 44.0869 113.768 41.9053C113.758 39.3845 113.747 36.8636 113.731 34.3428C113.725 33.3368 113.723 32.3307 113.721 31.3247C113.737 23.5648 113.737 23.5648 109.891 16.9974C107.357 14.6289 103.883 13.8134 100.446 13.7323C96.6332 13.8215 93.1292 14.764 90.2202 17.2271L89.7311 17.6084C86.566 20.3087 85.6271 24.6782 85.3201 28.5689C85.2853 29.5266 85.2837 30.4832 85.2859 31.4414C85.2853 31.7154 85.2848 31.9893 85.2843 32.2716C85.2832 32.8619 85.2828 33.4524 85.2827 34.0427C85.2817 35.3009 85.2757 36.5591 85.2702 37.8173C85.2598 40.1549 85.2515 42.4927 85.2521 44.8304C85.2523 46.4616 85.2458 48.0927 85.2351 49.7239C85.2322 50.343 85.2319 50.9622 85.234 51.5813C85.2366 52.4485 85.2308 53.3154 85.2231 54.1826C85.2259 54.4353 85.2288 54.688 85.2316 54.9484C85.2008 56.9056 84.6493 58.6181 83.3037 60.1203C81.5906 61.6087 79.9305 61.96 77.6967 61.8924C75.6265 61.6649 74.3117 60.7943 72.936 59.3197C71.4613 56.8694 71.5921 54.1752 71.6033 51.4327C71.6021 50.974 71.6005 50.5153 71.5987 50.0567C71.595 48.8175 71.5967 47.5782 71.5993 46.339C71.6013 45.0385 71.5992 43.7378 71.5979 42.4372C71.5965 40.2538 71.5986 38.0704 71.6025 35.887C71.6069 33.3672 71.6054 30.8473 71.6009 28.3275C71.5972 26.1591 71.5966 23.9908 71.5987 21.8224C71.6 20.5294 71.6004 19.2364 71.5977 17.9435C71.5953 16.7277 71.597 15.5119 71.6017 14.2961C71.6027 13.8515 71.6024 13.4068 71.6006 12.9621C71.5788 7.05569 71.5787 7.0556 73.6144 4.83036C75.3632 3.48683 77.0853 2.80802 79.3312 2.98403C81.4035 3.40132 82.9665 4.22587 84.2312 5.8854C84.9735 7.2039 85.1869 8.36985 85.3201 9.84182L85.72 9.32975C89.0825 5.12574 93.3278 2.79614 98.6848 1.76722C100.315 1.61087 101.939 1.60576 103.576 1.59928L104.595 1.58279C110.843 1.55745 116.166 3.65794 120.676 7.83064C121.918 9.0849 122.899 10.3959 123.783 11.8855C123.88 11.9277 123.996 12.0324 124.135 12.2157C124.876 13.5304 127.771 9.86216 127.788 9.84182L128.187 9.32975C131.55 5.12574 135.795 2.79614 141.152 1.76722C142.782 1.61087 144.407 1.60576 146.044 1.59928L147.062 1.58279Z" fill="white"/>
<path d="M10.5462 2.78579C11.9288 3.92899 13.0813 5.17492 13.2797 6.99079C13.2805 7.21429 13.2813 7.4378 13.2821 7.66808C13.2855 8.05561 13.2855 8.05561 13.289 8.45098C13.2886 8.87171 13.2886 8.87171 13.2881 9.30094C13.29 9.59877 13.2919 9.8966 13.2938 10.2035C13.2975 10.8501 13.2999 11.4967 13.3013 12.1433C13.3036 13.1693 13.3092 14.1953 13.3156 15.2213C13.3289 17.4029 13.3377 19.5846 13.3461 21.7663C13.3558 24.2871 13.3673 26.8079 13.3831 29.3287C13.3885 30.3347 13.3908 31.3407 13.393 32.3467C13.357 40.1362 13.357 40.1362 17.2934 46.7082C20.8966 49.6143 25.0494 49.8977 29.5436 49.6096C32.794 49.2149 35.8371 47.8246 37.9826 45.3894C38.1128 45.2446 38.243 45.0998 38.3771 44.9505C41.484 41.2654 41.835 36.5257 41.8324 31.9581C41.8334 31.6832 41.8343 31.4084 41.8353 31.1252C41.8373 30.5332 41.8387 29.9411 41.8397 29.3491C41.8417 28.4109 41.846 27.4728 41.851 26.5347C41.8652 23.869 41.8783 21.2034 41.8825 18.5377C41.8853 16.9031 41.8933 15.2685 41.9047 13.634C41.908 13.0129 41.9094 12.3918 41.9088 11.7708C41.9082 10.9022 41.9142 10.0339 41.9217 9.16539C41.9199 8.91075 41.9181 8.65612 41.9163 8.39376C41.9432 6.50254 42.4015 5.12584 43.6515 3.66053C45.3855 2.21295 46.9459 1.50951 49.263 1.58856C51.2061 1.84169 52.7893 2.58841 54.0227 4.08708C55.1452 5.80395 55.4377 7.27979 55.4427 9.30494C55.4442 9.62701 55.4457 9.94908 55.4472 10.2809C55.4475 10.6343 55.4478 10.9877 55.4481 11.3411C55.4493 11.716 55.4507 12.0909 55.4523 12.4658C55.4553 13.271 55.4576 14.0762 55.4594 14.8815C55.4623 16.155 55.4678 17.4285 55.4738 18.7021C55.4907 22.3228 55.5054 25.9435 55.5144 29.5642C55.5194 31.5655 55.5273 33.5667 55.5384 35.568C55.5441 36.6263 55.5483 37.6846 55.5489 38.743C55.5495 39.7378 55.5538 40.7326 55.561 41.7274C55.563 42.0922 55.5635 42.457 55.5626 42.8218C55.5616 43.3202 55.566 43.8187 55.5707 44.3171C55.572 44.7352 55.572 44.7352 55.5734 45.1618C55.6936 46.0346 55.9629 46.5272 56.494 47.2358C57.4669 47.9515 58.2527 48.1279 59.4545 48.2414C61.054 48.4758 62.0374 48.8777 63.0275 50.1371C64.1017 51.848 64.0949 53.8753 63.7166 55.7967C63.1664 57.6593 62.1583 58.9887 60.4147 59.9416C59.1289 60.5375 57.9688 60.5756 56.5621 60.5392C56.3224 60.5354 56.0828 60.5315 55.8359 60.5275C52.1354 60.424 48.8176 59.3661 46.0325 56.9218C45.2234 56.0618 44.593 55.0859 43.9716 54.0936C43.6947 54.4042 43.6947 54.4042 43.4123 54.721C39.5526 58.975 34.8288 61.3535 28.9991 62.0064C28.4317 62.0354 27.8646 62.0533 27.2967 62.0694C23.6593 62.1847 20.2939 62.7762 17.2934 64.9078C17.0948 65.0462 16.8961 65.1845 16.6915 65.3271C14.8787 66.7146 13.8506 68.5037 13.4822 70.7105C13.4578 71.3377 13.4464 71.9653 13.4439 72.5929C13.4389 72.9613 13.4336 73.3296 13.428 73.6979C13.4201 74.2714 13.4142 74.8447 13.414 75.4182C13.4102 77.746 13.3466 79.8419 11.8488 81.7885C10.0492 83.4305 8.36562 84.0446 5.89708 83.9975C3.83142 83.7582 2.29429 82.7627 1.00231 81.2198C0.348825 80.2101 0.0751273 79.3047 0.07306 78.1172C0.0713045 77.8614 0.0695498 77.6056 0.067741 77.342C0.0685842 77.063 0.0694269 76.784 0.0702956 76.4965C0.0690621 76.1986 0.0678291 75.9006 0.0665582 75.5936C0.0631058 74.5929 0.0635575 73.5922 0.0640067 72.5916C0.0626741 71.875 0.060541 71.1584 0.0584655 70.4418C0.0539443 68.696 0.0524469 66.9503 0.0521433 65.2045C0.0518845 63.7852 0.0507652 62.366 0.0490393 60.9468C0.0442449 56.9222 0.0417335 52.8976 0.0421419 48.873C0.0421636 48.6561 0.0421849 48.4392 0.0422073 48.2157C0.0422295 47.9985 0.0422519 47.7813 0.0422748 47.5575C0.0424961 44.0377 0.0372865 40.518 0.0296097 36.9982C0.0217877 33.3834 0.0180289 29.7686 0.0184992 26.1537C0.0186799 24.1246 0.0171865 22.0954 0.0113244 20.0663C0.00636506 18.3386 0.00518492 16.6109 0.0088799 14.8832C0.0106567 14.002 0.0100994 13.1209 0.00596493 12.2397C0.00176907 11.2835 0.00428557 10.3275 0.00848632 9.37134C0.00568589 9.0941 0.00288529 8.81687 0 8.53123C0.0190125 6.57297 0.43317 5.17908 1.7286 3.66053C4.31734 1.49935 7.58168 0.745077 10.5462 2.78579Z" fill="white"/>
<path d="M311.155 20.969C311.155 17.4001 314.141 14.5069 317.825 14.5069H338.786C342.47 14.5069 345.456 17.4001 345.456 20.969C345.456 24.538 342.47 27.4312 338.786 27.4312H317.825C314.141 27.4312 311.155 24.538 311.155 20.969Z" fill="white"/>
</svg>
